<?xml version="1.0" encoding="utf-8"?>
<!-- Generator: Adobe Illustrator 16.0.0, SVG Export Plug-In . SVG Version: 6.00 Build 0)  -->
<!DOCTYPE svg PUBLIC "-//W3C//DTD SVG 1.1//EN" "http://www.w3.org/Graphics/SVG/1.1/DTD/svg11.dtd">
<svg version="1.1" id="Layer_1" xmlns="http://www.w3.org/2000/svg" xmlns:xlink="http://www.w3.org/1999/xlink" x="0px" y="0px"
	 width="512px" height="512px" viewBox="0 0 512 512" enable-background="new 0 0 512 512" xml:space="preserve">
<g>
	<path fill-rule="evenodd" clip-rule="evenodd" d="M503.466,132.268L379.733,8.534c-11.38-11.379-29.855-11.379-41.234,0
		L214.767,132.268c-11.411,11.379-11.411,29.854,0,41.265l20.601,20.601L359.101,70.401l82.499,82.499L317.867,276.633
		l20.632,20.632c11.379,11.38,29.854,11.38,41.234,0l123.732-123.732C514.845,162.122,514.845,143.646,503.466,132.268z"/>
	<path fill-rule="evenodd" clip-rule="evenodd" d="M276.633,317.866L152.9,441.6l-82.499-82.499l123.732-123.733l-20.632-20.632
		c-11.379-11.38-29.854-11.38-41.233,0L8.534,338.468c-11.379,11.41-11.379,29.886,0,41.265l123.733,123.733
		c11.379,11.379,29.854,11.379,41.233,0l123.733-123.733c11.41-11.379,11.41-29.854,0-41.265L276.633,317.866z"/>
	<path fill-rule="evenodd" clip-rule="evenodd" d="M173.501,338.468c11.411,11.41,29.854,11.41,41.266,0l123.732-123.732
		c11.379-11.38,11.379-29.824,0-41.203c-11.41-11.41-29.854-11.41-41.265,0L173.501,297.265
		C162.122,308.645,162.122,327.089,173.501,338.468z"/>
</g>
</svg>
